<svg xmlns="http://www.w3.org/2000/svg" width="184.24" height="21" viewBox="0 0 184.24 21">
  <g id="Group_21359" data-name="Group 21359" transform="translate(-1001 2689.5)">
    <path id="Path_11103" data-name="Path 11103" d="M7.08.28a5.4,5.4,0,0,0,5.54-5.04H9.98A2.826,2.826,0,0,1,7-2.06,3.039,3.039,0,0,1,4.7-3C3.76-4.02,3.54-5.3,3.54-7.1s.22-3.08,1.16-4.08A3.135,3.135,0,0,1,7-12.12,2.744,2.744,0,0,1,9.98-9.38h2.64a5.335,5.335,0,0,0-5.54-5.08A5.726,5.726,0,0,0,2.9-12.88C1.36-11.34.92-9.42.92-7.1s.44,4.26,1.96,5.8A5.761,5.761,0,0,0,7.08.28Zm10.76,0a3.545,3.545,0,0,0,3.08-1.64A1.782,1.782,0,0,0,22.82.16a2.371,2.371,0,0,0,1.24-.28V-1.96a1.392,1.392,0,0,1-.32.04c-.42,0-.64-.18-.64-.66V-6.76c0-2.68-1.56-3.92-4.24-3.92-2.58,0-4.36,1.44-4.36,3.42h2.42c.06-.96.68-1.5,1.9-1.5,1.32,0,1.84.68,1.84,1.66v.6l-2.86.2c-2.32.16-3.72,1.42-3.72,3.32C14.08-1.28,15.36.28,17.84.28Zm.34-2c-1.04,0-1.66-.56-1.66-1.36,0-.94.74-1.32,1.74-1.4l2.4-.18v.46A2.3,2.3,0,0,1,18.18-1.72Zm8,1.72h2.5V-5.36c0-1.62.68-3,2.24-3,1.16,0,1.74.76,1.74,1.98V0h2.5V-6.96a3.439,3.439,0,0,0-3.58-3.72,3.487,3.487,0,0,0-3.1,1.64l-.12-1.36H26.18ZM40.34,0H43l3.76-10.4H44.12l-2.4,7.42L39.18-10.4h-2.7Zm10.9.28a3.545,3.545,0,0,0,3.08-1.64A1.782,1.782,0,0,0,56.22.16a2.371,2.371,0,0,0,1.24-.28V-1.96a1.392,1.392,0,0,1-.32.04c-.42,0-.64-.18-.64-.66V-6.76c0-2.68-1.56-3.92-4.24-3.92-2.58,0-4.36,1.44-4.36,3.42h2.42c.06-.96.68-1.5,1.9-1.5,1.32,0,1.84.68,1.84,1.66v.6l-2.86.2c-2.32.16-3.72,1.42-3.72,3.32C47.48-1.28,48.76.28,51.24.28Zm.34-2c-1.04,0-1.66-.56-1.66-1.36,0-.94.74-1.32,1.74-1.4l2.4-.18v.46A2.3,2.3,0,0,1,51.58-1.72Zm11.7,2c2.38,0,4.46-1.16,4.46-3.48A2.994,2.994,0,0,0,64.9-6.16l-2.22-.3c-.56-.08-1.2-.32-1.2-1.06,0-.84.8-1.28,1.88-1.28,1.02,0,1.78.52,1.78,1.48h2.38c0-2-1.9-3.36-4.16-3.36-2.34,0-4.24,1.4-4.24,3.52a2.877,2.877,0,0,0,2.72,2.72l2.5.34a1.1,1.1,0,0,1,1.08,1.08c0,.98-1.02,1.38-2.06,1.38-1.24,0-2.16-.54-2.16-1.7H58.8C58.8-1.14,60.76.28,63.28.28Z" transform="translate(1117.5 -2672)" fill="#0d71c6"/>
    <path id="Path_11104" data-name="Path 11104" d="M1.68-14.18V0h9.9V-2.34H4.26V-6.22h6.42V-8.54H4.26v-3.3h7.32v-2.34ZM17.76.28c2.38,0,4.46-1.16,4.46-3.48a2.994,2.994,0,0,0-2.84-2.96l-2.22-.3c-.56-.08-1.2-.32-1.2-1.06,0-.84.8-1.28,1.88-1.28,1.02,0,1.78.52,1.78,1.48H22c0-2-1.9-3.36-4.16-3.36-2.34,0-4.24,1.4-4.24,3.52a2.877,2.877,0,0,0,2.72,2.72l2.5.34A1.1,1.1,0,0,1,19.9-3.02c0,.98-1.02,1.38-2.06,1.38-1.24,0-2.16-.54-2.16-1.7h-2.4C13.28-1.14,15.24.28,17.76.28Zm10.12,0c2.38,0,4.46-1.16,4.46-3.48A2.994,2.994,0,0,0,29.5-6.16l-2.22-.3c-.56-.08-1.2-.32-1.2-1.06,0-.84.8-1.28,1.88-1.28,1.02,0,1.78.52,1.78,1.48h2.38c0-2-1.9-3.36-4.16-3.36-2.34,0-4.24,1.4-4.24,3.52a2.877,2.877,0,0,0,2.72,2.72l2.5.34a1.1,1.1,0,0,1,1.08,1.08c0,.98-1.02,1.38-2.06,1.38-1.24,0-2.16-.54-2.16-1.7H23.4C23.4-1.14,25.36.28,27.88.28Zm10.86,0a4.186,4.186,0,0,0,4.4-3.38H40.8a1.962,1.962,0,0,1-2.1,1.4,2.592,2.592,0,0,1-2.5-2.78h7.16a6.672,6.672,0,0,0,.06-1c0-3.1-1.8-5.2-4.8-5.2A4.59,4.59,0,0,0,35.3-9.36,5.7,5.7,0,0,0,33.7-5.2,5.666,5.666,0,0,0,35.32-1,4.815,4.815,0,0,0,38.74.28ZM36.22-6.3a2.431,2.431,0,0,1,2.46-2.4,2.147,2.147,0,0,1,2.24,2.4ZM45.7,0h2.5V-5.36c0-1.62.68-3,2.24-3,1.16,0,1.74.76,1.74,1.98V0h2.5V-6.96a3.439,3.439,0,0,0-3.58-3.72A3.487,3.487,0,0,0,48-9.04l-.12-1.36H45.7ZM61.62.14a5.03,5.03,0,0,0,1.74-.26V-2.28a4.868,4.868,0,0,1-1.22.14c-.8,0-1.32-.34-1.32-1.14V-8.34h2.52V-10.4H60.82v-3.26l-2.5.62v2.64H56.34v2.06h1.98v5.42C58.32-.92,59.52.14,61.62.14ZM65.5-10.4V0h2.54V-10.4Zm-.08-4.06v2.58h2.7v-2.58ZM74.02.28A3.545,3.545,0,0,0,77.1-1.36,1.782,1.782,0,0,0,79,.16a2.371,2.371,0,0,0,1.24-.28V-1.96a1.392,1.392,0,0,1-.32.04c-.42,0-.64-.18-.64-.66V-6.76c0-2.68-1.56-3.92-4.24-3.92-2.58,0-4.36,1.44-4.36,3.42H73.1c.06-.96.68-1.5,1.9-1.5,1.32,0,1.84.68,1.84,1.66v.6l-2.86.2c-2.32.16-3.72,1.42-3.72,3.32C70.26-1.28,71.54.28,74.02.28Zm.34-2c-1.04,0-1.66-.56-1.66-1.36,0-.94.74-1.32,1.74-1.4l2.4-.18v.46A2.3,2.3,0,0,1,74.36-1.72ZM85,.12a4.15,4.15,0,0,0,1.1-.14v-2.1c-.14,0-.2.02-.42.02-.86,0-1-.4-1-1V-14.48H82.16v11.8A2.523,2.523,0,0,0,85,.12Z" transform="translate(1030.32 -2672)"/>
    <path id="Path_11105" data-name="Path 11105" d="M3-15a1.5,1.5,0,0,0,1.5-1.5A1.5,1.5,0,0,0,3-18a1.5,1.5,0,0,0-1.5,1.5A1.5,1.5,0,0,0,3-15Zm0-4.5a3,3,0,0,1,2.906,2.25h9.187A3,3,0,0,1,18-19.5a3,3,0,0,1,3,3,3,3,0,0,1-2.25,2.906v9.188A3,3,0,0,1,21-1.5a3,3,0,0,1-3,3A3,3,0,0,1,15.094-.75H5.906A3,3,0,0,1,3,1.5a3,3,0,0,1-3-3A3,3,0,0,1,2.25-4.406v-9.187A3,3,0,0,1,0-16.5,3,3,0,0,1,3-19.5ZM5.906-2.25h9.188A3.007,3.007,0,0,1,17.25-4.406v-9.187a3.007,3.007,0,0,1-2.156-2.156H5.906A3.007,3.007,0,0,1,3.75-13.594v9.188A3.007,3.007,0,0,1,5.906-2.25ZM4.5-1.5A1.5,1.5,0,0,0,3-3,1.5,1.5,0,0,0,1.5-1.5,1.5,1.5,0,0,0,3,0,1.5,1.5,0,0,0,4.5-1.5Zm12,0A1.5,1.5,0,0,0,18,0a1.5,1.5,0,0,0,1.5-1.5A1.5,1.5,0,0,0,18-3,1.5,1.5,0,0,0,16.5-1.5ZM18-15a1.5,1.5,0,0,0,1.5-1.5A1.5,1.5,0,0,0,18-18a1.5,1.5,0,0,0-1.5,1.5A1.5,1.5,0,0,0,18-15Z" transform="translate(1001 -2670)" fill="#0d71c6"/>
  </g>
</svg>
